<svg id="Layer_1" data-name="Layer 1" xmlns="http://www.w3.org/2000/svg" viewBox="0 0 108.13 55.7"><defs><style>.cls-1{fill:#231f20;}.cls-2{fill:#d2232a;}</style></defs><path class="cls-1" d="M19.8,54.41h6.38a15.11,15.11,0,0,0,7.11-1.9,18.61,18.61,0,0,0,6.08-5.1v7h13l0-35.53A16,16,0,0,0,46.78,6.16Q41.22,1.38,32.16,1.38H23.3q-9,0-14.47,4.58a15,15,0,0,0-5.51,12.1h13.6a4.31,4.31,0,0,1,1.75-3.61,7.42,7.42,0,0,1,4.63-1.33h8.86a6.31,6.31,0,0,1,4.48,1.59,5.49,5.49,0,0,1,1.7,4.17v5.36a27.21,27.21,0,0,0-5.67-2,25.47,25.47,0,0,0-5.76-.72H20.62q-8.44,0-13.59,4A12.52,12.52,0,0,0,1.88,36v3.81A13,13,0,0,0,6.82,50.4q4.95,4,13,4ZM21.65,43.7a7.49,7.49,0,0,1-4.48-1.23,3.81,3.81,0,0,1-1.7-3.2V36.6A4,4,0,0,1,17,33.3a6.25,6.25,0,0,1,4-1.23h6.49a26,26,0,0,1,6.23.72,12.77,12.77,0,0,1,4.59,2v1.75A11.26,11.26,0,0,1,34,41.75a12.16,12.16,0,0,1-6.8,2Z"/><path class="cls-1" d="M106.57,36.83V2.13h-13V8.31a18.51,18.51,0,0,0-6.08-5.1,15.12,15.12,0,0,0-7.1-1.91H74q-8,0-13,4A13,13,0,0,0,56.1,15.93v3.81a12.56,12.56,0,0,0,5.15,10.45q5.15,4,13.6,4h6.28a25.6,25.6,0,0,0,5.77-.73,27.7,27.7,0,0,0,5.66-1.95v5.35A5.46,5.46,0,0,1,90.86,41a6.26,6.26,0,0,1-4.48,1.6H64.87a6.81,6.81,0,0,1,0,11.74H86.38q9.06,0,14.63-4.79a16,16,0,0,0,5.56-12.72ZM92.56,21a12.61,12.61,0,0,1-4.58,2,26.14,26.14,0,0,1-6.23.72H75.26a6.21,6.21,0,0,1-4-1.24,4,4,0,0,1-1.54-3.29V16.44a3.77,3.77,0,0,1,1.7-3.19A7.39,7.39,0,0,1,75.88,12h5.56a12.06,12.06,0,0,1,6.79,2,11.07,11.07,0,0,1,4.33,5.25V21Z"/><path class="cls-2" d="M61.17,53.42a4.94,4.94,0,1,0-5-4.93,5,5,0,0,0,5,4.93Z"/></svg>